HIERARCHY
ROOT hip
{
	OFFSET 0.000000 0.000000 0.000000 
	CHANNELS 6 Xposition Yposition Zposition Xrotation Zrotation Yrotation
	JOINT abdomen
	{
		OFFSET 0.000000 3.402643 0.000000 
		CHANNELS 3 Xrotation Zrotation Yrotation
		JOINT chest
		{
			OFFSET 0.000000 8.438565 -0.680529 
			CHANNELS 3 Xrotation Zrotation Yrotation
			JOINT neck
			{
				OFFSET 0.000000 10.207942 -0.272212 
				CHANNELS 3 Xrotation Zrotation Yrotation
				JOINT head
				{
					OFFSET 0.000000 3.130431 0.000000 
					CHANNELS 3 Xrotation Zrotation Yrotation
					End Site
					{
						OFFSET 0.000000 3.130435 0.000000 
					}
				}
			}
			JOINT lCollar
			{
				OFFSET 3.470700 6.669187 -0.816635 
				CHANNELS 3 Yrotation Zrotation Xrotation
				JOINT lShldr
				{
					OFFSET 3.198488 0.000000 0.000000 
					CHANNELS 3 Zrotation Yrotation Xrotation
					JOINT lForeArm
					{
						OFFSET 10.139888 0.000000 0.000000 
						CHANNELS 3 Yrotation Zrotation Xrotation
						JOINT lHand
						{
							OFFSET 8.370511 0.000000 0.000000 
							CHANNELS 3 Zrotation Yrotation Xrotation
							End Site
							{
								OFFSET 4.083176 0.000000 0.000000 
							}
						}
					}
				}
			}
			JOINT rCollar
			{
				OFFSET -3.470700 6.669187 -0.816635 
				CHANNELS 3 Yrotation Zrotation Xrotation
				JOINT rShldr
				{
					OFFSET -3.198488 0.000000 0.000000 
					CHANNELS 3 Zrotation Yrotation Xrotation
					JOINT rForeArm
					{
						OFFSET -10.139888 0.000000 0.000000 
						CHANNELS 3 Yrotation Zrotation Xrotation
						JOINT rHand
						{
							OFFSET -8.370511 0.000000 0.000000 
							CHANNELS 3 Zrotation Yrotation Xrotation
							End Site
							{
								OFFSET -4.083176 0.000000 0.000000 
							}
						}
					}
				}
			}
		}
	}
	JOINT lThigh
	{
		OFFSET 5.308129 -1.633274 1.361059 
		CHANNELS 3 Xrotation Zrotation Yrotation
		JOINT lShin
		{
			OFFSET -2.041588 -20.007561 0.000000 
			CHANNELS 3 Xrotation Zrotation Yrotation
			JOINT lFoot
			{
				OFFSET 0.000000 -19.190928 -1.224953 
				CHANNELS 3 Xrotation Yrotation Zrotation
				End Site
				{
					OFFSET 0.000000 -2.449906 4.627600 
				}
			}
		}
	}
	JOINT rThigh
	{
		OFFSET -5.308129 -1.633274 1.361059 
		CHANNELS 3 Xrotation Zrotation Yrotation
		JOINT rShin
		{
			OFFSET 2.041588 -20.007561 0.000000 
			CHANNELS 3 Xrotation Zrotation Yrotation
			JOINT rFoot
			{
				OFFSET 0.000000 -19.190928 -1.224953 
				CHANNELS 3 Xrotation Yrotation Zrotation
				End Site
				{
					OFFSET 0.000000 -2.449906 4.627600 
				}
			}
		}
	}
}
MOTION
Frames: 14
Frame Time: 0.033333
-58.421577 31.684677 101.535591 164.843765 -170.517578 -4.855125 58.812729 -7.035224 -0.576123 -16.689455 10.009766 2.539063 51.063168 8.107644 2.471410 -65.214844 -1.572258 -42.704945 2.000000 -2.000000 0.000000 -72.490234 4.199219 -26.034443 -93.797066 0.022772 -3.019697 -4.471659 33.255230 -5.134389 -2.000000 2.000000 0.000000 35.312500 15.712892 -76.081337 90.243172 -0.245315 -3.061900 -84.529091 -100.319801 64.398827 -80.095657 23.777847 21.325436 60.617348 -2.572291 -4.454256 10.114552 -0.769625 7.575123 -91.816635 -11.688993 3.448302 62.393196 2.363278 3.857601 12.654496 -6.469038 -0.886178 
-58.426327 31.708286 101.530045 164.843765 -170.517578 -4.679343 58.812729 -7.035224 -0.576123 -16.699219 9.843751 2.501669 51.063168 8.107644 2.471410 -65.214844 -1.572258 -42.704945 2.000000 -2.000000 0.000000 -72.197266 4.599609 -25.731638 -93.949875 0.575503 -2.934425 -5.584834 33.467445 -5.637461 -2.000000 2.000000 0.000000 35.419922 15.664063 -75.798149 90.580238 -0.469390 -2.908633 -84.975601 -100.406685 65.358650 -80.111984 23.794373 21.195879 60.616016 -2.524894 -4.495321 10.252079 -0.566049 7.245504 -91.816635 -11.688992 3.448301 62.393196 2.363281 3.857603 12.454720 -6.527292 -0.741885 
-58.455948 31.692545 101.555374 164.843765 -170.517578 -4.679343 58.812729 -7.035224 -0.576123 -16.699219 9.843751 2.501669 51.063168 8.107644 2.471410 -65.039063 -1.416016 -42.753906 2.000000 -2.000000 0.000000 -72.197266 4.599609 -25.731638 -93.949875 0.575503 -2.934425 -5.584834 33.467445 -5.637461 -2.000000 2.000000 0.000000 35.380859 15.986327 -75.673828 90.761162 -0.469245 -2.742474 -85.596642 -100.513847 66.338654 -80.111984 23.794380 21.195873 60.616016 -2.524893 -4.495321 10.280772 -0.679733 7.385056 -91.828629 -11.699045 3.606817 62.401947 2.343917 3.885320 12.671070 -6.475686 -0.896633 
-58.490433 31.708286 101.600517 164.843765 -170.683594 -4.718378 58.812729 -7.035224 -0.576123 -16.865234 10.019532 2.509766 51.063168 8.107644 2.471410 -64.873047 -1.601562 -42.714844 2.000000 -2.000000 0.000000 -72.236328 4.794922 -25.848791 -93.958694 0.217038 -2.874517 -5.676927 33.624352 -5.857369 -2.000000 2.000000 0.000000 35.703125 15.566406 -75.156242 90.946289 -0.274563 -3.063592 -89.883591 -100.002747 70.299240 -80.111275 23.618189 21.162386 60.616138 -2.534569 -4.491072 9.990180 -0.400640 7.175537 -91.783203 -11.835259 2.920534 62.202595 2.198378 4.239689 12.855134 -6.738817 -1.193677 
-58.517288 31.692545 101.636856 164.843765 -170.683594 -4.718378 58.812729 -7.035224 -0.576123 -17.031250 10.205079 2.529297 51.063168 8.107644 2.471410 -64.697266 -1.611328 -42.714844 2.000000 -2.000000 0.000000 -72.236328 4.843750 -25.624174 -93.782913 0.207289 -2.873951 -5.338963 33.700138 -5.840574 -2.000000 2.000000 0.000000 35.937496 15.244141 -74.921875 91.122070 -0.284312 -3.064156 -90.771187 -99.527779 70.412193 -80.111275 23.618183 21.162384 60.440056 -2.544319 -4.482643 10.158165 -0.386849 7.145851 -91.613571 -11.844972 3.031895 62.201721 2.188499 4.262913 13.018991 -6.394904 -1.245927 
-58.550259 31.692545 101.669716 164.843765 -170.683594 -4.718378 58.840046 -6.946100 -0.730419 -17.031250 10.205079 2.705079 51.063168 8.107644 2.471410 -64.521492 -1.630859 -42.724613 2.000000 -2.000000 0.000000 -72.236328 4.843750 -25.624174 -93.782913 0.207289 -2.873951 -5.160833 33.718491 -5.825592 -2.000000 2.000000 0.000000 36.318359 14.951171 -74.225998 91.113060 -0.467858 -3.104107 -94.636024 -98.683632 74.058296 -80.111275 23.618189 21.162386 60.440056 -2.544320 -4.482643 10.158159 -0.386848 7.145851 -91.613571 -11.844972 3.031895 62.201889 2.198178 4.258847 13.135061 -6.626142 -1.117616 
-58.583706 31.676811 101.719002 164.843765 -170.683594 -4.542597 58.840046 -6.946100 -0.730419 -17.031250 10.205079 2.705079 51.063168 8.107644 2.471410 -64.355469 -1.660156 -42.734375 2.000000 -2.000000 0.000000 -72.275391 5.009766 -25.585083 -93.782913 0.207289 -2.873951 -5.049992 33.551750 -5.602259 -2.000000 2.000000 0.000000 36.533203 15.174601 -73.991341 91.122070 -0.284312 -3.064156 -94.226990 -98.215118 73.273010 -80.129189 23.460350 21.119158 60.450180 -2.544354 -4.473792 10.587045 -0.496112 7.238489 -91.780144 -12.011621 2.926563 62.035706 2.206954 4.251246 13.212995 -6.418717 -1.190492 
-58.620846 31.661077 101.751060 164.853531 -170.859375 -4.591395 58.815552 -6.868490 -0.574957 -17.207033 10.214845 2.666016 51.063168 8.107644 2.471410 -64.179688 -1.660156 -42.734375 2.000000 -2.000000 0.000000 -72.255859 5.000000 -25.410156 -93.782913 0.207289 -2.873951 -5.042245 33.375912 -5.573437 -2.000000 2.000000 0.000000 36.748047 15.224611 -73.818352 91.122070 -0.284312 -3.064156 -92.635468 -97.725090 72.018509 -80.319832 23.289209 21.014194 60.279678 -2.748062 -4.553722 10.563672 0.052308 7.258828 -91.641823 -12.040530 3.447574 61.874279 2.421921 3.850266 13.446122 -6.140659 -0.638227 
-58.658810 31.653086 101.772690 164.853531 -170.859375 -4.415614 58.815552 -6.868490 -0.574957 -17.216799 10.048829 2.451172 51.063168 8.107644 2.471410 -63.974613 -1.503906 -42.607422 2.000000 -2.000000 0.000000 -72.607422 4.990234 -25.117188 -93.792427 0.022618 -2.853460 -4.624755 32.885033 -5.117101 -2.000000 2.000000 0.000000 36.855469 15.595704 -73.095703 91.283630 -0.488324 -2.919507 -88.920418 -97.462448 69.041908 -80.339966 23.299526 20.827732 60.280033 -2.748065 -4.544083 10.622621 -0.103201 7.224833 -91.641823 -12.040539 3.447581 61.874279 2.421924 3.850269 13.480108 -6.006249 -0.592183 
-58.700233 31.661077 101.813431 164.863297 -171.025391 -4.464414 58.815552 -6.868490 -0.574957 -17.216799 10.048829 2.451172 51.063168 8.107644 2.471410 -63.974613 -1.503906 -42.607422 2.000000 -2.000000 0.000000 -72.216797 4.794922 -25.292969 -93.782913 0.207289 -2.873951 -5.195745 32.996044 -5.556139 -2.000000 2.000000 0.000000 36.914063 15.644531 -73.134773 91.473633 -0.294061 -3.064720 -88.265755 -97.199051 68.701950 -80.317749 23.111521 21.174175 60.253845 -2.554088 -4.482644 10.525030 -0.262982 7.324164 -91.806068 -12.216902 2.950055 61.692749 2.299433 4.258680 13.432920 -6.399702 -1.163489 
-58.727764 31.645216 101.848618 164.863297 -171.025391 -4.288632 58.842899 -6.779366 -0.729258 -17.216799 10.048829 2.451172 51.063168 8.107644 2.471410 -63.974613 -1.347656 -42.470703 2.000000 -2.000000 0.000000 -72.392570 4.814454 -24.940586 -93.782913 0.207289 -2.873951 -5.372375 33.153469 -5.571139 -2.000000 2.000000 0.000000 36.855469 15.898438 -72.890625 91.464005 -0.499058 -2.734426 -84.590424 -97.054222 65.512993 -80.317749 23.111523 21.174175 60.057861 -2.563832 -4.482282 10.714694 -0.287115 7.495047 -91.613464 -12.363074 2.906899 61.684067 2.245911 4.227431 13.446737 -6.404503 -0.944420 
-58.767574 31.645216 101.893753 165.048828 -171.191406 -4.356964 58.842899 -6.779366 -0.729258 -17.216799 10.048829 2.451172 51.063168 8.107644 2.471410 -63.974613 -1.503906 -42.431641 2.000000 -2.000000 0.000000 -72.558594 4.814453 -24.619141 -93.782913 0.207289 -2.873951 -5.389415 33.329376 -5.594128 -2.000000 2.000000 0.000000 36.953125 15.625002 -73.063774 91.649681 -0.303247 -3.075029 -87.768768 -97.008644 68.442307 -80.327705 22.926092 21.146507 60.067982 -2.563838 -4.473412 10.916528 -0.321033 7.672864 -91.420433 -12.343537 2.698537 61.508072 2.255713 4.219584 13.838286 -6.460120 -0.705103 
-58.798595 31.629480 101.943268 165.224609 -171.162109 -4.210485 59.018730 -6.782795 -0.720113 -17.031250 10.205079 2.705079 51.063168 8.107644 2.471410 -64.150391 -1.503906 -42.421879 2.000000 -2.000000 0.000000 -72.705078 4.638672 -24.667183 -93.958694 0.217038 -2.874517 -5.320326 33.690250 -5.431354 -2.000000 2.000000 0.000000 37.158203 16.025391 -72.773438 91.640053 -0.508242 -2.744737 -85.528358 -97.031731 66.733383 -80.163345 22.947214 20.858313 59.882504 -2.572136 -4.453728 11.030892 -0.108849 7.334994 -91.253433 -12.353251 2.845289 61.331718 2.265520 4.221363 13.853097 -6.452160 -0.702871 
-58.832371 31.629480 101.989098 165.410156 -171.328125 -4.308113 59.018730 -6.782795 -0.720113 -17.031250 10.205079 2.705079 51.063168 8.107644 2.471410 -64.355469 -1.660156 -42.558594 2.000000 -2.000000 0.000000 -72.705078 4.707032 -24.608572 -93.958694 0.217038 -2.874517 -5.489202 33.662098 -5.442459 -2.000000 2.000000 0.000000 37.187496 15.800782 -73.066406 91.649681 -0.303247 -3.075029 -86.518837 -96.763901 67.917183 -79.965492 22.925489 20.899969 59.706112 -2.593026 -4.451327 11.057158 -0.193300 7.694277 -91.077866 -12.538907 2.808324 61.155663 2.294892 4.214877 14.128876 -6.230407 -0.792794 
